<?xml version="1.0" encoding="UTF-8"?>
<svg id="Layer_1" data-name="Layer 1" xmlns="http://www.w3.org/2000/svg" viewBox="0 0 269.73 104.96">
  <defs>
    <style>
      .cls-1 {
        font-family: MicrosoftYaHeiUI, 'Microsoft YaHei UI';
        font-size: 78.18px;
      }

      .cls-1, .cls-2, .cls-3 {
        fill: #231f20;
      }

      .cls-2 {
        font-family: MicrosoftYaHeiUI-Bold, 'Microsoft YaHei UI';
        font-size: 33.06px;
      }

      .cls-4 {
        letter-spacing: -.09em;
      }

      .cls-5 {
        letter-spacing: -.01em;
      }

      .cls-6 {
        letter-spacing: 0em;
      }
    </style>
  </defs>
  <text></text>
  <text class="cls-2" transform="translate(104.44 96.31) scale(.76 1)"><tspan x="0" y="0">Pho</tspan><tspan class="cls-6" x="64.8" y="0">t</tspan><tspan x="78.34" y="0">ography</tspan></text>
  <text class="cls-1" transform="translate(84.87 67.03) scale(1.16 1)"><tspan class="cls-4" x="0" y="0">T</tspan><tspan class="cls-5" x="37.49" y="0">r</tspan><tspan x="66.23" y="0">ee</tspan></text>
  <g>
    <path class="cls-3" d="M60.46,44.18c1.25-3.21,1.94-6.7,1.94-10.35,0-15.78-12.79-28.57-28.57-28.57S5.26,18.05,5.26,33.83c0,3.65,.69,7.14,1.94,10.35-4.35,3.06-7.21,8.11-7.21,13.84,0,9.34,7.57,16.92,16.92,16.92,2.45,0,4.78-.52,6.88-1.46l-10.3-10.3c-.71-.71-.71-1.87,0-2.58s1.87-.71,2.58,0l10.96,10.96c2.05-1.54,3.73-3.53,4.91-5.83v-18.04c0-1.01,.82-1.82,1.82-1.82h.13c1.01,0,1.82,.82,1.82,1.82v18.04c.45,.88,.97,1.71,1.56,2.49,.53,.08,1.1-.06,1.55-.51l14.65-14.65c.71-.71,1.87-.71,2.58,0s.71,1.87,0,2.58l-15.71,15.71c2.87,2.25,6.48,3.59,10.41,3.59,9.34,0,16.92-7.57,16.92-16.92,0-5.73-2.85-10.78-7.21-13.84Z"/>
    <path class="cls-3" d="M37.27,68.21c-.83-.13-1.56-.81-1.56-1.8v-.69c-.54-1.05-.98-2.17-1.3-3.33-.2,0-.39,.01-.59,.01s-.39-.01-.59-.01c-.31,1.17-.76,2.28-1.3,3.33v6.34c0,1.62-1.96,2.44-3.11,1.29l-1.8-1.8c-1,.75-2.08,1.4-3.24,1.92l7.61,7.61c.34,.34,.53,.81,.53,1.29v20.5c0,1.01,.82,1.82,1.82,1.82h.13c1.01,0,1.82-.82,1.82-1.82v-28.28l.69,.69,3.93-3.93c-1.15-.91-2.18-1.96-3.07-3.13Z"/>
  </g>
</svg>