<?xml version="1.0" encoding="UTF-8"?>
<svg id="Layer_1" data-name="Layer 1" xmlns="http://www.w3.org/2000/svg" viewBox="0 0 263.39 104.96">
  <defs>
    <style>
      .cls-1, .cls-2, .cls-3, .cls-4 {
        fill: #fff;
      }

      .cls-2 {
        font-family: MicrosoftYaHeiUI-Bold, 'Microsoft YaHei UI';
        font-size: 33.06px;
      }

      .cls-2, .cls-3, .cls-4 {
        isolation: isolate;
      }

      .cls-3, .cls-4 {
        font-family: MicrosoftYaHeiUI, 'Microsoft YaHei UI';
        font-size: 78.18px;
      }

      .cls-4 {
        letter-spacing: -.09em;
      }
    </style>
  </defs>
  <text class="cls-2" transform="translate(98.04 96.31) scale(.76 1)"><tspan x="0" y="0">Pho</tspan></text>
  <text class="cls-2" transform="translate(147.29 96.31) scale(.76 1)"><tspan x="0" y="0">t</tspan></text>
  <text class="cls-2" transform="translate(157.58 96.31) scale(.76 1)"><tspan x="0" y="0">ography</tspan></text>
  <text class="cls-4" transform="translate(78.47 67.03) scale(1.16 1)"><tspan x="0" y="0">T</tspan></text>
  <text class="cls-3" transform="translate(121.96 67.03) scale(1.16 1)"><tspan x="0" y="0">r</tspan></text>
  <text class="cls-3" transform="translate(155.3 67.03) scale(1.16 1)"><tspan x="0" y="0">ee</tspan></text>
  <g>
    <path class="cls-1" d="M60.5,41.7c1.2-3.2,1.9-6.7,1.9-10.3,0-15.8-12.8-28.6-28.6-28.6S5.3,15.6,5.3,31.3c0,3.7,.7,7.1,1.9,10.3-4.3,3.1-7.2,8.1-7.2,13.8,0,9.3,7.6,16.9,16.9,16.9,2.5,0,4.8-.5,6.9-1.5l-10.2-10.1c-.7-.7-.7-1.9,0-2.6,.7-.7,1.9-.7,2.6,0l11,11c2-1.5,3.7-3.5,4.9-5.8v-18c0-1,.8-1.8,1.8-1.8h.1c1,0,1.8,.8,1.8,1.8v18c.5,.9,1,1.7,1.6,2.5,.5,.1,1.1-.1,1.5-.5l14.7-14.7c.7-.7,1.9-.7,2.6,0s.7,1.9,0,2.6l-15.8,15.7c2.9,2.2,6.5,3.6,10.4,3.6,9.3,0,16.9-7.6,16.9-16.9,.1-5.8-2.8-10.9-7.2-13.9Z"/>
    <path class="cls-1" d="M37.4,65.7c-.8-.1-1.6-.8-1.6-1.8v-.7c-.5-1.1-1-2.2-1.3-3.3h-1.2c-.3,1.2-.8,2.3-1.3,3.3v6.3c0,1.6-2,2.4-3.1,1.3l-1.8-1.8c-1,.8-2.1,1.4-3.2,1.9l7.6,7.6c.3,.3,.5,.8,.5,1.3v20.5c0,1,.8,1.8,1.8,1.8h.1c1,0,1.8-.8,1.8-1.8v-28.2l.7,.7,3.9-3.9c-1.1-1-2.1-2-2.9-3.2h0Z"/>
  </g>
</svg>